<?xml version="1.0" encoding="UTF-8"?>
<svg width="42px" height="42px" viewBox="0 0 42 42" version="1.1" xmlns="http://www.w3.org/2000/svg" xmlns:xlink="http://www.w3.org/1999/xlink">
    <title>calendar copy</title>
    <g id="Page-1" stroke="none" stroke-width="1" fill="none" fill-rule="evenodd">
        <g id="Homepage---Desktop" transform="translate(-1266.000000, -820.000000)" fill="#FFFFFF" fill-rule="nonzero">
            <g id="Group-4-Copy" transform="translate(1233.000000, 792.000000)">
                <g id="calendar-copy" transform="translate(33.000000, 28.000000)">
                    <path d="M38.4975,15.747188 C38.4975,11.7054097 38.4975,8.75843599 38.4975,8.75843599 C38.4975,8.75843599 36.405,8.75843599 33.2475,8.75843599 L33.2475,10.4981253 C33.2475,11.4654526 32.4675,12.252812 31.5,12.252812 C30.5325,12.252812 29.7525,11.4654526 29.7525,10.4981253 L29.7525,8.75843599 C24.405,8.75843599 17.595,8.75843599 12.255,8.75843599 L12.255,10.505624 C12.255,11.4729513 11.475,12.2603107 10.5075,12.2603107 C9.54,12.2603107 8.76,11.4729513 8.76,10.505624 L8.76,8.75843599 C5.6025,8.75843599 3.5175,8.75843599 3.5175,8.75843599 C3.5175,8.75843599 3.5175,11.7129084 3.51,15.7546867 L38.4975,15.747188 Z M38.4975,19.2490627 L3.5025,19.2490627 C3.5025,27.8050348 3.5025,38.4906267 3.5025,38.4906267 C3.5025,38.4981253 38.49,38.4981253 38.49,38.4981253 C38.4975,38.4906267 38.4975,27.8050348 38.4975,19.2490627 L38.4975,19.2490627 Z M33.2475,5.24906267 L38.49,5.24906267 C40.425,5.24906267 42,6.81628281 42,8.75843599 L42,38.4906267 C42,40.4252812 40.4325,42 38.49,42 L3.51,42 C1.5675,41.9925013 0,40.4252812 0,38.483128 L0,8.75843599 C0,6.81628281 1.5675,5.24906267 3.51,5.24906267 L8.7525,5.24906267 L8.7525,1.75468666 C8.7525,0.7873594 9.525,0 10.5,0 C11.4675,0 12.2475,0.7873594 12.2475,1.75468666 L12.2475,5.24906267 L29.745,5.24906267 L29.745,1.75468666 C29.7525,0.7873594 30.525,0 31.5,0 C32.4675,0 33.2475,0.7873594 33.2475,1.75468666 L33.2475,5.24906267 Z" id="Shape"></path>
                </g>
            </g>
        </g>
    </g>
</svg>