<?xml version="1.0" encoding="UTF-8"?>
<svg width="55px" height="50px" viewBox="0 0 55 50" version="1.1" xmlns="http://www.w3.org/2000/svg" xmlns:xlink="http://www.w3.org/1999/xlink">
    <title>Group 6</title>
    <defs>
        <polygon id="path-1" points="0 0 37 0 37 41 0 41"></polygon>
    </defs>
    <g id="Page-1" stroke="none" stroke-width="1" fill="none" fill-rule="evenodd">
        <g id="Homepage---Desktop" transform="translate(-135.000000, -821.000000)">
            <g id="Group-6" transform="translate(135.000000, 821.000000)">
                <path d="M11.2585854,28.7715924 C10.9429903,28.4664541 10.5058618,28.2915898 10.0595353,28.2915898 L7.27165349,28.2915898 C6.23530151,28.2915898 5.26077177,27.9014967 4.52749959,27.1931504 C3.79467977,26.4846585 3.39102572,25.5427227 3.39102572,24.541333 L3.39102572,7.02706843 C3.39102572,6.02538731 3.79467977,5.08374295 4.52749959,4.37554245 C5.26062099,3.66705052 6.23515072,3.27681164 7.27165349,3.27681164 L40.7287989,3.27681164 C41.7653016,3.27681164 42.7399822,3.66705052 43.4731036,4.37554245 C44.2059234,5.08388867 44.6095774,6.02553303 44.6095774,7.02706843 L44.6095774,24.541333 C44.6095774,25.5427227 44.2059234,26.4846585 43.4731036,27.1931504 C42.7396806,27.9014967 41.7651508,28.2915898 40.7287989,28.2915898 L19.8200621,28.2915898 L19.8095071,28.2915898 C19.3658947,28.2915898 18.9313296,28.464414 18.614679,28.7676579 L11.7552744,35.4091505 L11.7552744,29.9303599 C11.7552744,29.4990279 11.5743312,29.0765849 11.2585854,28.7715924 L11.2585854,28.7715924 Z M40.7283465,31.5688386 C42.671073,31.5688386 44.4970911,30.8379058 45.8699974,29.5105398 C47.2435068,28.1836111 48,26.4187929 48,24.5414787 L48,7.02735987 C48,5.14975423 47.2435068,3.3850818 45.8699974,2.05829877 C44.4970911,0.731078579 42.671073,0 40.7287989,0 L7.27165349,0 C5.32892703,0 3.50290891,0.730932858 2.13000264,2.05829877 C0.756493221,3.38537324 0,5.15004567 0,7.02735987 L0,24.5414787 C0,26.4189387 0.756493221,28.1837568 2.12985185,29.5105398 C3.5030597,30.8379058 5.32907782,31.5688386 7.27165349,31.5688386 L8.36424865,31.5688386 L8.36424865,39.3622499 C8.36786751,40.0238199 8.77740221,40.6136956 9.40829072,40.8671031 C9.60280462,40.9543896 9.81707149,41 10.0233467,41 C10.0348064,41 10.0462662,41 10.0577259,40.9995628 C10.5088775,40.9979599 10.9438951,40.8292158 11.263109,40.523349 L20.5148838,31.5688386 L40.7283465,31.5688386 Z" id="Fill-1" fill="#FFFFFF"></path>
                <g id="Group-5" transform="translate(18.000000, 9.000000)">
                    <mask id="mask-2" fill="white">
                        <use xlink:href="#path-1"></use>
                    </mask>
                    <g id="Clip-4"></g>
                    <path d="M34.9197976,1.15218508 C34.723791,0.953419365 34.3582852,0.617769225 34.1270829,0.434511109 L33.9135521,0.278242186 C33.6408217,0.0961769612 33.3237652,0 32.9962532,0 C32.0748309,0 31.3251169,0.759276103 31.3251169,1.69241629 C31.3251169,2.28826612 31.6396698,2.84460138 32.1472841,3.14863987 C32.30029,3.26271022 32.4451964,3.38870949 32.5783218,3.52335724 C33.2940182,4.24803946 33.6882402,5.21159841 33.6882402,6.23659132 L33.6882402,24.1584598 C33.6882402,25.1831545 33.2940182,26.1470116 32.5783218,26.8719921 C31.8621837,27.5966743 30.9104253,27.995846 29.8982893,27.995846 L27.1754033,27.995846 C26.7396532,27.995846 26.3128861,28.174929 26.0045182,28.4871686 C25.6961502,28.7994082 25.5192878,29.2315335 25.5192878,29.6727547 L25.5192878,35.2792005 L18.8192801,28.4819497 C18.5039908,28.1658332 18.0822307,27.9874957 17.6448607,27.995846 L1.65596824,27.995846 C0.742792688,27.995846 0,28.7481138 0,29.6727547 C0,30.5972464 0.742792688,31.3495142 1.65596824,31.3495142 L16.9643601,31.3495142 L26.0011311,40.513613 C26.313917,40.8273437 26.7271359,41.0000149 27.1571428,41.0000149 C27.1608243,41.0000149 27.1645059,41.0000149 27.1680402,40.9995676 C27.1798212,41.0000149 27.1916022,41.0000149 27.2035305,41.0000149 C27.4147051,41.0000149 27.6258797,40.9525974 27.8048038,40.8670074 C28.4249267,40.6091935 28.8278373,40.0035023 28.831077,39.322808 L28.831077,31.3495142 L29.8982893,31.3495142 C31.7954737,31.3495142 33.5789714,30.6015706 34.9197976,29.2431642 C36.2612129,27.8856525 37.0000295,26.0797623 37.0000295,24.1586089 L37.0000295,6.23688955 C37.0000295,4.31573611 36.2612129,2.50999502 34.9197976,1.15218508" id="Fill-3" fill="#FFFFFF" mask="url(#mask-2)"></path>
                </g>
            </g>
        </g>
    </g>
</svg>